<?xml version="1.0" encoding="UTF-8" standalone="no"?>
<!DOCTYPE svg PUBLIC "-//W3C//DTD SVG 1.1//EN" "http://www.w3.org/Graphics/SVG/1.1/DTD/svg11.dtd">
<svg width="100%" height="100%" viewBox="0 0 177 177" version="1.1" xmlns="http://www.w3.org/2000/svg" xmlns:xlink="http://www.w3.org/1999/xlink" xml:space="preserve" xmlns:serif="http://www.serif.com/" style="fill-rule:evenodd;clip-rule:evenodd;stroke-linejoin:round;stroke-miterlimit:1.41421;">
    <g transform="matrix(1,0,0,1,-70.1035,-169.345)">
        <g id="path3747" transform="matrix(1,0,0,1,15.3535,24.2051)">
            <path d="M143.25,145.14C192.094,145.14 231.75,184.795 231.75,233.64C231.75,282.484 192.094,322.14 143.25,322.14C94.405,322.14 54.75,282.484 54.75,233.64C54.75,184.795 94.405,145.14 143.25,145.14ZM171.502,287.978C177.304,288.006 183.141,288.681 188.202,291.626C190.127,292.746 189.414,296.365 186.067,294.446C183.368,292.916 180.298,292.15 177.258,291.739C168.585,290.564 151.97,293.04 137.146,295.307C125.365,297.091 113.273,299.265 101.915,296.699C101.915,296.699 100.47,296.31 100.338,295.132C99.991,292.046 106.736,294.239 112.527,294.253C131.669,294.299 150.562,288.293 170.005,287.986C170.504,287.98 171.003,287.977 171.502,287.978ZM173.055,273.796C183.495,273.866 194.089,276.36 202.377,282.618C203.541,283.497 204.02,285.771 201.921,286.045C200.654,286.211 199.185,284.585 197.712,283.652C185.78,276.093 170.106,276.725 156.729,278.604C136.741,281.411 116.471,287.036 97.663,283.098C92.381,281.992 87.228,280.083 82.59,277.395C81.358,276.68 81.01,274.528 82.809,274.054C84.097,273.715 85.82,275.217 87.488,276.016C103.055,283.469 121.855,280.855 138.032,278.128C149.644,276.153 161.265,273.787 173.055,273.796ZM88.862,261.291C83.181,267.107 159.272,267.634 177.99,263.832L193.198,260.141C181.182,259.267 102.749,255.867 88.862,261.291ZM125.643,163.201C125.444,228.641 119.731,223.713 105.672,257.662C107.609,257.624 142.421,246.015 204.879,259.387C187.552,223.36 161.846,190.044 125.643,163.201ZM108.825,170.917C108.786,170.769 108.746,170.621 108.705,170.472C108.705,170.719 108.725,170.842 108.825,170.917C116.941,201.681 94.564,232.842 84.031,247.129C93.03,245.261 102.361,243.719 108.047,244.497C121.595,221.639 121.561,197.981 122.852,177.052C111.676,170.509 109.308,171.279 108.825,170.917Z"/>
        </g>
    </g>
</svg>
